# xmcd
#
# Track frame offsets: 
#        300
#        34222
#        52131
#        74943
#        99181
#        121548
#        138692
#        154640
#        168202
#        186054
#        202151
#        216847
#        230928
#        246179
#        258465
#        272004
#
# Disc length: 3813 seconds
#
# Revision: 0
# Processed by: cddbd v1.5.2PL0 Copyright (c) Steve Scherf et al.
# Submitted via: ExactAudioCopy v0.90b4
#
DISCID=f80ee110
DTITLE=Eric Clapton - Sessions For Robert J - DVD Audio Rip
DYEAR=2004
DGENRE=Blues
TTITLE0=Kind Hearted Woman Blues
TTITLE1=They're Red Hot
TTITLE2=Hell Hound On My Trail
TTITLE3=Sweet Home Chicago
TTITLE4=When You Got A Good Friend
TTITLE5=Milkcow's Calf Blues
TTITLE6=If I Had Possession Over Judgement Day
TTITLE7=Stop Breakin' Down Blues
TTITLE8=Terraplane Blues
TTITLE9=Hell Hound On My Trail
TTITLE10=Me And The Devil Blues
TTITLE11=From Four Until Late
TTITLE12=Love In Vain
TTITLE13=Ramblin' On My Mind
TTITLE14=Stones In My Passway
TTITLE15=Love In Vain
EXTD=DVD Audio Rip
EXTT0=
EXTT1=
EXTT2=
EXTT3=
EXTT4=
EXTT5=
EXTT6=
EXTT7=
EXTT8=
EXTT9=
EXTT10=
EXTT11=
EXTT12=
EXTT13=
EXTT14=
EXTT15=
PLAYORDER=
